# xmcd CD database file
# Copyright (C) 1993-1996 Ti Kan
#
# Track frame offsets:
# 175
# 20255
# 44460
# 75207
# 92320
# 110285
# 136275
# 155887
# 176007
# 193107
# 208702
# 226122
# 241310
# 260205
# 272272
# 295865
#
# Disc length: 4256 seconds
# Revision: 0
# Processed by: cddbd v1.4b41PL1 Copyright (c) Steve Scherf et al.
# Submitted via: CDSpectrumPro v3.2.327
#
DISCID=d1109e10
DTITLE=The Sisters of Mercy - Rare Obscurities
DYEAR=1900
DGENRE=
TTITLE0=Dance On Glass (demo)
TTITLE1=Garden of Delight
TTITLE2=Teachers - Adrenochrome
TTITLE3=Red Skies Disappear
TTITLE4=Good Things (demo)
TTITLE5=Marian (instrumental)
TTITLE6=NRUB
TTITLE7=Body Electric (rough mix)
TTITLE8=No Time To Cry (alternative studio version)
TTITLE9=First and Last and Always (alternative studio version)
TTITLE10=A Rock and Hard Place (alternative studio version)
TTITLE11=Walk Away (alternative studio version)
TTITLE12=Gimme Gimme (early live)
TTITLE13=Jolene (early live)
TTITLE14=Spirits (soundcheck 84)
TTITLE15=Dominion (early studio recording)
EXTD=
EXTT0=
EXTT1=
EXTT2=
EXTT3=
EXTT4=
EXTT5=
EXTT6=
EXTT7=
EXTT8=
EXTT9=
EXTT10=
EXTT11=
EXTT12=
EXTT13=
EXTT14=
EXTT15=
PLAYORDER=
